<?xml version="1.0" encoding="UTF-8" standalone="no"?>
<svg
   xmlns:dc="http://purl.org/dc/elements/1.1/"
   xmlns:cc="http://creativecommons.org/ns#"
   xmlns:rdf="http://www.w3.org/1999/02/22-rdf-syntax-ns#"
   xmlns:svg="http://www.w3.org/2000/svg"
   xmlns="http://www.w3.org/2000/svg"
   xmlns:sodipodi="http://sodipodi.sourceforge.net/DTD/sodipodi-0.dtd"
   xmlns:inkscape="http://www.inkscape.org/namespaces/inkscape"
   width="32"
   height="32"
   viewBox="0 0 8.4666666 8.4666662"
   version="1.1"
   id="svg1094"
   inkscape:version="1.0.1 (3bc2e813f5, 2020-09-07)"
   sodipodi:docname="azjconsulting icon.svg">
  <defs
     id="defs1088">
    <rect
       x="120.79988"
       y="101.01848"
       width="68.45697"
       height="18.670082"
       id="rect1709" />
    <rect
       x="78.681061"
       y="86.793655"
       width="9.6684361"
       height="12.891247"
       id="rect1675" />
  </defs>
  <sodipodi:namedview
     id="base"
     pagecolor="#ffffff"
     bordercolor="#666666"
     borderopacity="1.0"
     inkscape:pageopacity="0.0"
     inkscape:pageshadow="2"
     inkscape:zoom="13.586125"
     inkscape:cx="23.567427"
     inkscape:cy="25.317327"
     inkscape:document-units="mm"
     inkscape:current-layer="text1667"
     inkscape:document-rotation="0"
     showgrid="false"
     units="px"
     inkscape:pagecheckerboard="true"
     inkscape:window-width="1920"
     inkscape:window-height="986"
     inkscape:window-x="-11"
     inkscape:window-y="-11"
     inkscape:window-maximized="1" />
  <metadata
     id="metadata1091">
    <rdf:RDF>
      <cc:Work
         rdf:about="">
        <dc:format>image/svg+xml</dc:format>
        <dc:type
           rdf:resource="http://purl.org/dc/dcmitype/StillImage" />
        <dc:title />
      </cc:Work>
    </rdf:RDF>
  </metadata>
  <g
     inkscape:label="Warstwa 1"
     inkscape:groupmode="layer"
     id="layer1">
    <g
       aria-label="azj"
       id="text1667"
       style="font-style:italic;font-size:5.52367px;line-height:1.25;font-family:sans-serif;-inkscape-font-specification:'sans-serif Italic';fill:#000000;fill-opacity:1;stroke-width:0.193019;stroke-miterlimit:4;stroke-dasharray:none">
      <g
         id="g1732"
         style="opacity:1"
         transform="matrix(2.9222394,0,0,2.9222394,0.23843035,-8.8882056)">
        <path
           style="color:#000000;font-style:normal;font-variant:normal;font-weight:500;font-stretch:normal;font-size:5.52367px;line-height:1.25;font-family:'IBM 3270';-inkscape-font-specification:'IBM 3270 Medium';font-variant-ligatures:normal;font-variant-position:normal;font-variant-caps:normal;font-variant-numeric:normal;font-variant-alternates:normal;font-variant-east-asian:normal;font-feature-settings:normal;font-variation-settings:normal;text-indent:0;text-align:start;text-decoration:none;text-decoration-line:none;text-decoration-style:solid;text-decoration-color:#000000;letter-spacing:normal;word-spacing:normal;text-transform:none;writing-mode:lr-tb;direction:ltr;text-orientation:mixed;dominant-baseline:auto;baseline-shift:baseline;text-anchor:start;white-space:normal;shape-padding:0;shape-margin:0;inline-size:0;clip-rule:nonzero;display:inline;overflow:visible;visibility:visible;isolation:auto;mix-blend-mode:normal;color-interpolation:sRGB;color-interpolation-filters:linearRGB;solid-color:#000000;solid-opacity:1;vector-effect:none;fill:#009637;fill-opacity:1;fill-rule:nonzero;stroke:none;stroke-width:0.193019;stroke-linecap:butt;stroke-linejoin:miter;stroke-miterlimit:4;stroke-dasharray:none;stroke-dashoffset:0;stroke-opacity:1;color-rendering:auto;image-rendering:auto;shape-rendering:auto;text-rendering:auto;enable-background:accumulate;stop-color:#000000;stop-opacity:1"
           d="M 1.8956121,5.3377674 V 4.6196903 H 0.78535434 L 0.54783653,4.8627318 v 0.2319941 l 0.23199414,0.2485652 z m 0.3314202,0.00552 H 2.5639761 V 5.663664 H 0.70802296 c -0.0441893,0 -0.082855,-0.016571 -0.11599707,-0.049713 L 0.27165302,5.2714834 c -0.033142,-0.033142 -0.049713,-0.071808 -0.049713,-0.1159971 V 4.7964477 c 0,-0.044189 0.016571,-0.082855 0.049713,-0.115997 L 0.59754956,4.3435068 c 0.0294596,-0.029459 0.0681253,-0.044189 0.11599707,-0.044189 H 1.8956121 V 3.8684711 L 1.6691416,3.636477 H 0.54231286 V 3.3105805 H 1.7354256 c 0.044189,0 0.082855,0.016571 0.1159971,0.049713 l 0.3258965,0.3314202 c 0.033142,0.033142 0.049713,0.069966 0.049713,0.1104734 z"
           id="path1734" />
        <path
           style="color:#000000;font-style:normal;font-variant:normal;font-weight:500;font-stretch:normal;font-size:5.52367px;line-height:1.25;font-family:'IBM 3270';-inkscape-font-specification:'IBM 3270 Medium';font-variant-ligatures:normal;font-variant-position:normal;font-variant-caps:normal;font-variant-numeric:normal;font-variant-alternates:normal;font-variant-east-asian:normal;font-feature-settings:normal;font-variation-settings:normal;text-indent:0;text-align:start;text-decoration:none;text-decoration-line:none;text-decoration-style:solid;text-decoration-color:#000000;letter-spacing:normal;word-spacing:normal;text-transform:none;writing-mode:lr-tb;direction:ltr;text-orientation:mixed;dominant-baseline:auto;baseline-shift:baseline;text-anchor:start;white-space:normal;shape-padding:0;shape-margin:0;inline-size:0;clip-rule:nonzero;display:inline;overflow:visible;visibility:visible;isolation:auto;mix-blend-mode:normal;color-interpolation:sRGB;color-interpolation-filters:linearRGB;solid-color:#000000;solid-opacity:1;vector-effect:none;fill:#009637;fill-opacity:1;fill-rule:nonzero;stroke:none;stroke-width:0.193019;stroke-linecap:butt;stroke-linejoin:miter;stroke-miterlimit:4;stroke-dasharray:none;stroke-dashoffset:0;stroke-opacity:1;color-rendering:auto;image-rendering:auto;shape-rendering:auto;text-rendering:auto;enable-background:accumulate;stop-color:#000000;stop-opacity:1"
           d="M 0.4453125,3.2148438 V 3.7324219 H 1.6289062 L 1.7988281,3.9082031 V 4.203125 H 0.71289062 c -0.0676684,0 -0.13565174,0.024324 -0.18359374,0.072266 L 0.203125,4.6132812 C 0.15558103,4.6614971 0.125,4.7291691 0.125,4.796875 V 5.15625 c 0,0.068317 0.029818,0.1352867 0.078125,0.1835938 l 0.3203125,0.3417968 c 0.048307,0.048307 0.11723017,0.078125 0.18554688,0.078125 H 2.6601562 V 5.2460938 H 2.3242188 V 3.8027344 c 0,-0.066217 -0.031805,-0.1308 -0.078125,-0.1777344 V 3.62305 L 1.9199219,3.2929688 C 1.8716148,3.2446618 1.8046448,3.2148438 1.7363281,3.2148438 Z M 0.63867188,3.40625 H 1.7363281 c 0.020062,0 0.028898,0.00351 0.046875,0.021484 L 2.109375,3.7597656 c 0.019241,0.019241 0.021484,0.028783 0.021484,0.042969 V 5.4394533 H 2.226562 2.4667964 V 5.5664062 H 0.70898438 c -0.020062,0 -0.0308511,-0.00351 -0.0488281,-0.021484 L 0.34179688,5.2050781 0.33984375,5.203125 C 0.32186678,5.185148 0.31835938,5.1763121 0.31835938,5.15625 V 4.796875 c 0,-0.020062 0.003507,-0.030851 0.0214844,-0.048828 L 0.66601562,4.4121094 c 0.0109772,-0.010977 0.0187999,-0.015625 0.046875,-0.015625 H 1.9921875 V 3.8300781 L 1.7089844,3.5390625 H 0.63867188 Z M 0.74414062,4.5234375 0.45117188,4.8242188 V 5.1328125 L 0.73828125,5.4394531 1.9921875,5.4335938 V 5.3378906 4.5234375 Z m 0.0820313,0.1933594 H 1.7988281 V 5.2421875 L 0.82226562,5.2460938 0.64453125,5.0566406 V 4.9023438 Z"
           id="path1736" />
      </g>
    </g>
    <text
       xml:space="preserve"
       id="text1673"
       style="font-style:italic;font-size:1.41111px;line-height:1.25;font-family:sans-serif;-inkscape-font-specification:'sans-serif Italic';white-space:pre;shape-inside:url(#rect1675);" />
    <text
       xml:space="preserve"
       id="text1707"
       style="font-style:italic;font-size:1.41111px;line-height:1.25;font-family:sans-serif;-inkscape-font-specification:'sans-serif Italic';white-space:pre;shape-inside:url(#rect1709);" />
  </g>
</svg>
