<?xml version="1.0" encoding="UTF-8" standalone="no"?>
<svg
   xmlns:dc="http://purl.org/dc/elements/1.1/"
   xmlns:cc="http://creativecommons.org/ns#"
   xmlns:rdf="http://www.w3.org/1999/02/22-rdf-syntax-ns#"
   xmlns:svg="http://www.w3.org/2000/svg"
   xmlns="http://www.w3.org/2000/svg"
   xmlns:sodipodi="http://sodipodi.sourceforge.net/DTD/sodipodi-0.dtd"
   xmlns:inkscape="http://www.inkscape.org/namespaces/inkscape"
   width="32"
   height="32"
   viewBox="0 0 8.4666666 8.4666662"
   version="1.1"
   id="svg1094"
   inkscape:version="1.0.1 (3bc2e813f5, 2020-09-07)"
   sodipodi:docname="azjconsulting icon.svg">
  <defs
     id="defs1088">
    <rect
       x="120.79988"
       y="101.01848"
       width="68.45697"
       height="18.670082"
       id="rect1709" />
    <rect
       x="78.681061"
       y="86.793655"
       width="9.6684361"
       height="12.891247"
       id="rect1675" />
  </defs>
  <sodipodi:namedview
     id="base"
     pagecolor="#ffffff"
     bordercolor="#666666"
     borderopacity="1.0"
     inkscape:pageopacity="0.0"
     inkscape:pageshadow="2"
     inkscape:zoom="13.586125"
     inkscape:cx="23.567427"
     inkscape:cy="25.317327"
     inkscape:document-units="mm"
     inkscape:current-layer="layer1"
     inkscape:document-rotation="0"
     showgrid="false"
     units="px"
     inkscape:pagecheckerboard="true"
     inkscape:window-width="1920"
     inkscape:window-height="986"
     inkscape:window-x="-11"
     inkscape:window-y="-11"
     inkscape:window-maximized="1" />
  <metadata
     id="metadata1091">
    <rdf:RDF>
      <cc:Work
         rdf:about="">
        <dc:format>image/svg+xml</dc:format>
        <dc:type
           rdf:resource="http://purl.org/dc/dcmitype/StillImage" />
        <dc:title></dc:title>
      </cc:Work>
    </rdf:RDF>
  </metadata>
  <g
     inkscape:label="Warstwa 1"
     inkscape:groupmode="layer"
     id="layer1">
    <g
       aria-label="azj"
       id="text1667"
       style="font-style:italic;font-size:5.52367px;line-height:1.25;font-family:sans-serif;-inkscape-font-specification:'sans-serif Italic';fill:#000000;fill-opacity:1;stroke-width:0.193019;stroke-miterlimit:4;stroke-dasharray:none">
      <g
         id="g1732"
         style="opacity:1">
        <path
           style="color:#000000;font-style:normal;font-variant:normal;font-weight:500;font-stretch:normal;font-size:5.52367px;line-height:1.25;font-family:'IBM 3270';-inkscape-font-specification:'IBM 3270 Medium';font-variant-ligatures:normal;font-variant-position:normal;font-variant-caps:normal;font-variant-numeric:normal;font-variant-alternates:normal;font-variant-east-asian:normal;font-feature-settings:normal;font-variation-settings:normal;text-indent:0;text-align:start;text-decoration:none;text-decoration-line:none;text-decoration-style:solid;text-decoration-color:#000000;letter-spacing:normal;word-spacing:normal;text-transform:none;writing-mode:lr-tb;direction:ltr;text-orientation:mixed;dominant-baseline:auto;baseline-shift:baseline;text-anchor:start;white-space:normal;shape-padding:0;shape-margin:0;inline-size:0;clip-rule:nonzero;display:inline;overflow:visible;visibility:visible;isolation:auto;mix-blend-mode:normal;color-interpolation:sRGB;color-interpolation-filters:linearRGB;solid-color:#000000;solid-opacity:1;vector-effect:none;fill:#009637;fill-opacity:1;fill-rule:nonzero;stroke:none;stroke-width:0.193019;stroke-linecap:butt;stroke-linejoin:miter;stroke-miterlimit:4;stroke-dasharray:none;stroke-dashoffset:0;stroke-opacity:1.0;color-rendering:auto;image-rendering:auto;shape-rendering:auto;text-rendering:auto;enable-background:accumulate;stop-color:#000000;stop-opacity:1;"
           d="M 1.8956121,5.3377674 V 4.6196903 H 0.78535434 L 0.54783653,4.8627318 v 0.2319941 l 0.23199414,0.2485652 z m 0.3314202,0.00552 H 2.5639761 V 5.663664 H 0.70802296 c -0.0441893,0 -0.082855,-0.016571 -0.11599707,-0.049713 L 0.27165302,5.2714834 c -0.033142,-0.033142 -0.049713,-0.071808 -0.049713,-0.1159971 V 4.7964477 c 0,-0.044189 0.016571,-0.082855 0.049713,-0.115997 L 0.59754956,4.3435068 c 0.0294596,-0.029459 0.0681253,-0.044189 0.11599707,-0.044189 H 1.8956121 V 3.8684711 L 1.6691416,3.636477 H 0.54231286 V 3.3105805 H 1.7354256 c 0.044189,0 0.082855,0.016571 0.1159971,0.049713 l 0.3258965,0.3314202 c 0.033142,0.033142 0.049713,0.069966 0.049713,0.1104734 z"
           id="path1734" />
        <path
           style="color:#000000;font-style:normal;font-variant:normal;font-weight:500;font-stretch:normal;font-size:5.52367px;line-height:1.25;font-family:'IBM 3270';-inkscape-font-specification:'IBM 3270 Medium';font-variant-ligatures:normal;font-variant-position:normal;font-variant-caps:normal;font-variant-numeric:normal;font-variant-alternates:normal;font-variant-east-asian:normal;font-feature-settings:normal;font-variation-settings:normal;text-indent:0;text-align:start;text-decoration:none;text-decoration-line:none;text-decoration-style:solid;text-decoration-color:#000000;letter-spacing:normal;word-spacing:normal;text-transform:none;writing-mode:lr-tb;direction:ltr;text-orientation:mixed;dominant-baseline:auto;baseline-shift:baseline;text-anchor:start;white-space:normal;shape-padding:0;shape-margin:0;inline-size:0;clip-rule:nonzero;display:inline;overflow:visible;visibility:visible;isolation:auto;mix-blend-mode:normal;color-interpolation:sRGB;color-interpolation-filters:linearRGB;solid-color:#000000;solid-opacity:1;vector-effect:none;fill:#009637;fill-opacity:1;fill-rule:nonzero;stroke:none;stroke-width:0.193019;stroke-linecap:butt;stroke-linejoin:miter;stroke-miterlimit:4;stroke-dasharray:none;stroke-dashoffset:0;stroke-opacity:1.0;color-rendering:auto;image-rendering:auto;shape-rendering:auto;text-rendering:auto;enable-background:accumulate;stop-color:#000000;stop-opacity:1;"
           d="M 0.4453125 3.2148438 L 0.4453125 3.7324219 L 1.6289062 3.7324219 L 1.7988281 3.9082031 L 1.7988281 4.203125 L 0.71289062 4.203125 C 0.64522217 4.203125 0.57723888 4.2274491 0.52929688 4.2753906 L 0.203125 4.6132812 C 0.15558103 4.6614971 0.125 4.7291691 0.125 4.796875 L 0.125 5.15625 C 0.125 5.2245667 0.15481797 5.2915367 0.203125 5.3398438 L 0.5234375 5.6816406 C 0.57174454 5.7299476 0.64066767 5.7597656 0.70898438 5.7597656 L 2.6601562 5.7597656 L 2.6601562 5.2460938 L 2.3242188 5.2460938 L 2.3242188 3.8027344 C 2.3242188 3.7365176 2.292414 3.6719344 2.2460938 3.625 L 2.2460938 3.6230469 L 1.9199219 3.2929688 C 1.8716148 3.2446618 1.8046448 3.2148438 1.7363281 3.2148438 L 0.4453125 3.2148438 z M 0.63867188 3.40625 L 1.7363281 3.40625 C 1.7563901 3.40625 1.765226 3.4097573 1.7832031 3.4277344 L 2.109375 3.7597656 C 2.1286157 3.7790064 2.1308594 3.7885482 2.1308594 3.8027344 L 2.1308594 5.4394531 L 2.2265625 5.4394531 L 2.4667969 5.4394531 L 2.4667969 5.5664062 L 0.70898438 5.5664062 C 0.68892242 5.5664062 0.6781333 5.5628989 0.66015625 5.5449219 L 0.34179688 5.2050781 L 0.33984375 5.203125 C 0.32186678 5.185148 0.31835938 5.1763121 0.31835938 5.15625 L 0.31835938 4.796875 C 0.31835938 4.776813 0.32186676 4.7660239 0.33984375 4.7480469 L 0.66601562 4.4121094 C 0.67699282 4.4011323 0.68481552 4.3964844 0.71289062 4.3964844 L 1.9921875 4.3964844 L 1.9921875 3.8300781 L 1.7089844 3.5390625 L 0.63867188 3.5390625 L 0.63867188 3.40625 z M 0.74414062 4.5234375 L 0.45117188 4.8242188 L 0.45117188 5.1328125 L 0.73828125 5.4394531 L 1.9921875 5.4335938 L 1.9921875 5.3378906 L 1.9921875 4.5234375 L 0.74414062 4.5234375 z M 0.82617188 4.7167969 L 1.7988281 4.7167969 L 1.7988281 5.2421875 L 0.82226562 5.2460938 L 0.64453125 5.0566406 L 0.64453125 4.9023438 L 0.82617188 4.7167969 z "
           id="path1736" />
      </g>
      <g
         id="g1738"
         style="opacity:1">
        <path
           style="color:#000000;font-style:normal;font-variant:normal;font-weight:500;font-stretch:normal;font-size:5.52367px;line-height:1.25;font-family:'IBM 3270';-inkscape-font-specification:'IBM 3270 Medium';font-variant-ligatures:normal;font-variant-position:normal;font-variant-caps:normal;font-variant-numeric:normal;font-variant-alternates:normal;font-variant-east-asian:normal;font-feature-settings:normal;font-variation-settings:normal;text-indent:0;text-align:start;text-decoration:none;text-decoration-line:none;text-decoration-style:solid;text-decoration-color:#000000;letter-spacing:normal;word-spacing:normal;text-transform:none;writing-mode:lr-tb;direction:ltr;text-orientation:mixed;dominant-baseline:auto;baseline-shift:baseline;text-anchor:start;white-space:normal;shape-padding:0;shape-margin:0;inline-size:0;clip-rule:nonzero;display:inline;overflow:visible;visibility:visible;isolation:auto;mix-blend-mode:normal;color-interpolation:sRGB;color-interpolation-filters:linearRGB;solid-color:#000000;solid-opacity:1;vector-effect:none;fill:#009637;fill-opacity:1;fill-rule:nonzero;stroke:none;stroke-width:0.193019;stroke-linecap:butt;stroke-linejoin:miter;stroke-miterlimit:4;stroke-dasharray:none;stroke-dashoffset:0;stroke-opacity:1.0;color-rendering:auto;image-rendering:auto;shape-rendering:auto;text-rendering:auto;enable-background:accumulate;stop-color:#000000;stop-opacity:1;"
           d="M 3.1826233,3.3105805 H 5.5246595 L 3.8620348,5.3377674 H 5.5246595 V 5.6691876 H 3.1826233 L 4.8507717,3.6475243 H 3.1826233 Z"
           id="path1740" />
        <path
           style="color:#000000;font-style:normal;font-variant:normal;font-weight:500;font-stretch:normal;font-size:5.52367px;line-height:1.25;font-family:'IBM 3270';-inkscape-font-specification:'IBM 3270 Medium';font-variant-ligatures:normal;font-variant-position:normal;font-variant-caps:normal;font-variant-numeric:normal;font-variant-alternates:normal;font-variant-east-asian:normal;font-feature-settings:normal;font-variation-settings:normal;text-indent:0;text-align:start;text-decoration:none;text-decoration-line:none;text-decoration-style:solid;text-decoration-color:#000000;letter-spacing:normal;word-spacing:normal;text-transform:none;writing-mode:lr-tb;direction:ltr;text-orientation:mixed;dominant-baseline:auto;baseline-shift:baseline;text-anchor:start;white-space:normal;shape-padding:0;shape-margin:0;inline-size:0;clip-rule:nonzero;display:inline;overflow:visible;visibility:visible;isolation:auto;mix-blend-mode:normal;color-interpolation:sRGB;color-interpolation-filters:linearRGB;solid-color:#000000;solid-opacity:1;vector-effect:none;fill:#009637;fill-opacity:1;fill-rule:nonzero;stroke:none;stroke-width:0.193019;stroke-linecap:butt;stroke-linejoin:miter;stroke-miterlimit:4;stroke-dasharray:none;stroke-dashoffset:0;stroke-opacity:1.0;color-rendering:auto;image-rendering:auto;shape-rendering:auto;text-rendering:auto;enable-background:accumulate;stop-color:#000000;stop-opacity:1;"
           d="M 3.0859375 3.2148438 L 3.0859375 3.3105469 L 3.0859375 3.7441406 L 4.6445312 3.7441406 L 2.9785156 5.765625 L 5.6210938 5.765625 L 5.6210938 5.2421875 L 4.0664062 5.2421875 L 5.7285156 3.2148438 L 3.0859375 3.2148438 z M 3.2792969 3.40625 L 5.3203125 3.40625 L 3.6582031 5.4335938 L 5.4277344 5.4335938 L 5.4277344 5.5722656 L 3.3886719 5.5722656 L 5.0546875 3.5507812 L 3.2792969 3.5507812 L 3.2792969 3.40625 z "
           id="path1742" />
      </g>
      <g
         id="g1744"
         style="opacity:1">
        <path
           style="color:#000000;font-style:normal;font-variant:normal;font-weight:500;font-stretch:normal;font-size:5.52367px;line-height:1.25;font-family:'IBM 3270';-inkscape-font-specification:'IBM 3270 Medium';font-variant-ligatures:normal;font-variant-position:normal;font-variant-caps:normal;font-variant-numeric:normal;font-variant-alternates:normal;font-variant-east-asian:normal;font-feature-settings:normal;font-variation-settings:normal;text-indent:0;text-align:start;text-decoration:none;text-decoration-line:none;text-decoration-style:solid;text-decoration-color:#000000;letter-spacing:normal;word-spacing:normal;text-transform:none;writing-mode:lr-tb;direction:ltr;text-orientation:mixed;dominant-baseline:auto;baseline-shift:baseline;text-anchor:start;white-space:normal;shape-padding:0;shape-margin:0;inline-size:0;clip-rule:nonzero;display:inline;overflow:visible;visibility:visible;isolation:auto;mix-blend-mode:normal;color-interpolation:sRGB;color-interpolation-filters:linearRGB;solid-color:#000000;solid-opacity:1;vector-effect:none;fill:#009637;fill-opacity:1;fill-rule:nonzero;stroke:none;stroke-width:0.193019;stroke-linecap:butt;stroke-linejoin:miter;stroke-miterlimit:4;stroke-dasharray:none;stroke-dashoffset:0;stroke-opacity:1.0;color-rendering:auto;image-rendering:auto;shape-rendering:auto;text-rendering:auto;enable-background:accumulate;stop-color:#000000;stop-opacity:1;"
           d="m 8.1539226,5.8459451 c 0,0.040507 -0.018412,0.079172 -0.055237,0.1159971 L 7.7672657,6.298886 C 7.7378064,6.3283453 7.6991407,6.343075 7.6512686,6.343075 H 6.9663335 c -0.044189,0 -0.082855,-0.016571 -0.115997,-0.049713 L 6.5189162,5.9564185 6.7509104,5.7244243 7.0381412,6.0171789 H 7.5849846 L 7.8169787,5.779661 V 3.3105805 H 8.1539226 Z M 7.8169787,2.2997488 H 8.1594463 V 2.6366927 H 7.8169787 Z"
           id="path1746" />
        <path
           style="color:#000000;font-style:normal;font-variant:normal;font-weight:500;font-stretch:normal;font-size:5.52367px;line-height:1.25;font-family:'IBM 3270';-inkscape-font-specification:'IBM 3270 Medium';font-variant-ligatures:normal;font-variant-position:normal;font-variant-caps:normal;font-variant-numeric:normal;font-variant-alternates:normal;font-variant-east-asian:normal;font-feature-settings:normal;font-variation-settings:normal;text-indent:0;text-align:start;text-decoration:none;text-decoration-line:none;text-decoration-style:solid;text-decoration-color:#000000;letter-spacing:normal;word-spacing:normal;text-transform:none;writing-mode:lr-tb;direction:ltr;text-orientation:mixed;dominant-baseline:auto;baseline-shift:baseline;text-anchor:start;white-space:normal;shape-padding:0;shape-margin:0;inline-size:0;clip-rule:nonzero;display:inline;overflow:visible;visibility:visible;isolation:auto;mix-blend-mode:normal;color-interpolation:sRGB;color-interpolation-filters:linearRGB;solid-color:#000000;solid-opacity:1;vector-effect:none;fill:#009637;fill-opacity:1;fill-rule:nonzero;stroke:none;stroke-width:0.193019;stroke-linecap:butt;stroke-linejoin:miter;stroke-miterlimit:4;stroke-dasharray:none;stroke-dashoffset:0;stroke-opacity:1.0;color-rendering:auto;image-rendering:auto;shape-rendering:auto;text-rendering:auto;enable-background:accumulate;stop-color:#000000;stop-opacity:1;"
           d="M 7.7207031 2.203125 L 7.7207031 2.2988281 L 7.7207031 2.7324219 L 8.2558594 2.7324219 L 8.2558594 2.203125 L 7.7207031 2.203125 z M 7.9140625 2.3964844 L 8.0625 2.3964844 L 8.0625 2.5410156 L 7.9140625 2.5410156 L 7.9140625 2.3964844 z M 7.7207031 3.2148438 L 7.7207031 5.7402344 L 7.5449219 5.9199219 L 7.078125 5.9199219 L 6.7519531 5.5878906 L 6.3828125 5.9550781 L 6.78125 6.3613281 C 6.829557 6.4096351 6.8984802 6.4394531 6.9667969 6.4394531 L 7.6503906 6.4394531 C 7.7180592 6.4394531 7.7879956 6.4151294 7.8359375 6.3671875 L 8.1679688 6.0292969 L 8.1660156 6.0292969 C 8.2153512 5.9799612 8.25 5.9154554 8.25 5.8457031 L 8.25 3.2148438 L 7.7207031 3.2148438 z M 7.9140625 3.40625 L 8.0566406 3.40625 L 8.0566406 5.8457031 C 8.0566406 5.8569642 8.0555637 5.8702175 8.03125 5.8945312 L 8.0292969 5.8945312 L 7.6992188 6.2304688 C 7.688242 6.2414455 7.6784661 6.2460937 7.6503906 6.2460938 L 6.9667969 6.2460938 C 6.9477031 6.2460938 6.9363137 6.2423638 6.9199219 6.2265625 L 6.9179688 6.2246094 L 6.6542969 5.9570312 L 6.75 5.8613281 L 6.9980469 6.1132812 L 7.625 6.1132812 L 7.9140625 5.8183594 L 7.9140625 3.40625 z "
           id="path1748" />
      </g>
    </g>
    <text
       xml:space="preserve"
       id="text1673"
       style="font-style:italic;font-size:1.41111px;line-height:1.25;font-family:sans-serif;-inkscape-font-specification:'sans-serif Italic';white-space:pre;shape-inside:url(#rect1675);" />
    <text
       xml:space="preserve"
       id="text1707"
       style="font-style:italic;font-size:1.41111px;line-height:1.25;font-family:sans-serif;-inkscape-font-specification:'sans-serif Italic';white-space:pre;shape-inside:url(#rect1709);" />
  </g>
</svg>
